<svg width="20" height="20" viewBox="0 0 20 20" fill="none" xmlns="http://www.w3.org/2000/svg">
<path fill-rule="evenodd" clip-rule="evenodd" d="M6.25 0C6.94036 0 7.5 0.559644 7.5 1.25V2.5H12.5V1.25C12.5 0.559644 13.0596 0 13.75 0C14.4404 0 15 0.559644 15 1.25V2.5H15.8337C17.4441 2.5 18.75 3.80589 18.75 5.41625V17.0837C18.75 18.6941 17.4441 20 15.8337 20H4.16625C2.55589 20 1.25 18.6941 1.25 17.0837V5.41625C1.25 3.80589 2.55589 2.5 4.16625 2.5H5V1.25C5 0.559644 5.55964 0 6.25 0ZM5.07098 5H4.16625C3.93661 5 3.75 5.18661 3.75 5.41625V7.5H16.25V5.41625C16.25 5.18661 16.0634 5 15.8337 5H14.929C14.7575 5.48571 14.2944 5.83375 13.75 5.83375C13.2056 5.83375 12.7425 5.48571 12.571 5H7.42902C7.25754 5.48571 6.79441 5.83375 6.25 5.83375C5.70559 5.83375 5.24246 5.48571 5.07098 5ZM16.25 10H3.75V17.0837C3.75 17.3134 3.93661 17.5 4.16625 17.5H15.8337C16.0634 17.5 16.25 17.3134 16.25 17.0837V10Z" fill="#526ED3"/>
</svg>
