<svg width="48" height="48" viewBox="0 0 48 48" fill="none" xmlns="http://www.w3.org/2000/svg">
<rect width="48" height="48" rx="8" fill="#F6F6F6"/>
<path fill-rule="evenodd" clip-rule="evenodd" d="M18 13C17.2044 13 16.4413 13.3161 15.8787 13.8787C15.3161 14.4413 15 15.2044 15 16V32C15 32.7957 15.3161 33.5587 15.8787 34.1213C16.4413 34.6839 17.2043 35 18 35H30C30.7957 35 31.5587 34.6839 32.1213 34.1213C32.6839 33.5587 33 32.7957 33 32V21C33 21 33 21 33 21C33 20.7222 32.8867 20.4709 32.7039 20.2897L25.7734 13.3592C25.749 13.3316 25.7231 13.3058 25.6957 13.2817C25.5093 13.1012 25.2599 13 25 13H18ZM24 15H18C17.7348 15 17.4804 15.1054 17.2929 15.2929C17.1054 15.4804 17 15.7348 17 16V32C17 32.2652 17.1054 32.5196 17.2929 32.7071C17.4804 32.8946 17.7348 33 18 33H30C30.2652 33 30.5196 32.8946 30.7071 32.7071C30.8946 32.5196 31 32.2652 31 32V22H25C24.4477 22 24 21.5523 24 21V15ZM29.5858 20L26 16.4142V20H29.5858Z" fill="#1B1F3B" fill-opacity="0.4"/>
</svg>
