<svg width="167" height="167" viewBox="0 0 167 167" fill="none" xmlns="http://www.w3.org/2000/svg">
<path fill-rule="evenodd" clip-rule="evenodd" d="M97.6631 40.1079C95.597 38.87 92.876 39.552 91.6381 41.618L82.0764 57.5767C81.8261 57.9944 81.3873 58.2588 80.9016 58.2862C80.4154 58.3133 79.9507 58.0996 79.6552 57.7124L70.0963 44.8254C69.7378 44.3416 69.2933 43.9542 68.8009 43.666C67.3239 42.8017 65.4012 42.8405 63.9504 43.9165L47.4907 56.1283C45.5566 57.5632 45.1409 60.3412 46.5794 62.2729L58.1921 77.8707C58.4581 78.2291 58.5456 78.6859 58.4317 79.1177C58.3179 79.5492 58.0161 79.9003 57.6078 80.0807L39.8569 86.8086C37.6174 87.694 36.4999 90.2687 37.3853 92.5079L44.9213 111.57C45.8065 113.81 48.3828 114.925 50.6223 114.039L67.8841 107.495C68.3083 107.327 68.7824 107.366 69.1738 107.601C69.565 107.835 69.8233 108.234 69.8754 108.688L72.2468 126.995C72.5224 129.388 74.7202 131.133 77.1127 130.858L97.4759 128.511C99.8682 128.236 101.611 126.037 101.336 123.644L98.8953 104.818C98.8613 104.374 99.0294 103.942 99.3557 103.637C99.6827 103.333 100.127 103.195 100.568 103.261L119.799 106.143C122.181 106.5 124.434 104.824 124.788 102.441L127.791 82.1671C128.056 80.3803 127.183 78.6666 125.724 77.7719C125.238 77.4737 124.686 77.2651 124.091 77.1766L108.219 74.8264C107.738 74.7488 107.33 74.4395 107.125 73.998C106.918 73.5557 106.944 73.0441 107.195 72.6264L116.756 56.6677C117.994 54.6017 117.312 51.8808 115.246 50.6429L97.6631 40.1079Z" fill="#ECECEC"/>
<path fill-rule="evenodd" clip-rule="evenodd" d="M54.2063 48.4582C52.057 49.5451 51.182 52.2104 52.2689 54.3597L60.6645 70.9615C60.8842 71.3961 60.8737 71.9082 60.6377 72.3337C60.4012 72.7594 59.9725 73.0383 59.4874 73.0817L43.4878 74.2903C42.8874 74.3355 42.3225 74.5046 41.8161 74.7674C40.297 75.5553 39.304 77.2022 39.44 79.0034L40.9861 99.4401C41.1678 101.841 43.2955 103.675 45.6968 103.489L65.0849 101.99C65.53 101.956 65.963 102.126 66.2673 102.453C66.5716 102.779 66.7075 103.222 66.6422 103.663L62.8614 122.266C62.4154 124.633 63.9967 126.951 66.363 127.397L86.5061 131.195C88.8724 131.641 91.1903 130.057 91.6359 127.69L95.3109 109.599C95.3953 109.15 95.6815 108.771 96.0887 108.565C96.4957 108.359 96.9713 108.353 97.3824 108.551L114.132 116.314C116.302 117.357 118.951 116.43 119.995 114.259L128.875 95.7847C129.918 93.6143 128.988 90.9669 126.818 89.9232L109.594 81.9426C109.199 81.7341 108.924 81.3615 108.841 80.9232C108.758 80.4844 108.878 80.035 109.169 79.6966L121.867 64.9694C123.441 63.1455 123.225 60.3457 121.398 58.7754L105.854 45.4178C104.483 44.2408 102.568 44.0645 101.033 44.8209C100.522 45.0731 100.051 45.4283 99.6585 45.8846L89.202 58.0549C88.8799 58.42 88.4008 58.5998 87.9178 58.538C87.4334 58.4768 87.0147 58.1818 86.7949 57.7472L78.3993 41.1454C77.3124 38.9961 74.6473 38.1211 72.4981 39.208L54.2063 48.4582Z" fill="#FF7043"/>
</svg>
