<svg width="16" height="16" viewBox="0 0 16 16" fill="none" xmlns="http://www.w3.org/2000/svg">
<path fill-rule="evenodd" clip-rule="evenodd" d="M3 5.4C3 2.774 4.97203 0 8 0C11.0283 0 13 2.77378 13 5.4C13 7.83407 13.4734 9.32855 13.8959 10.1806C14.108 10.6083 14.3112 10.8823 14.4453 11.038C14.5125 11.1162 14.5632 11.1654 14.5898 11.1898C14.5994 11.1986 14.6059 11.2042 14.6091 11.2069C14.9449 11.4647 15.0826 11.9072 14.9504 12.3112C14.8158 12.7221 14.4324 13 14 13H9.1721C9.33652 13.003 9.5025 13.0467 9.65483 13.135C10.1325 13.4122 10.2951 14.0241 10.018 14.5018C9.81287 14.8553 9.51852 15.1488 9.16436 15.3527C8.81021 15.5567 8.40869 15.6641 8 15.6641C7.59131 15.6641 7.18979 15.5567 6.83564 15.3527C6.48148 15.1488 6.18713 14.8553 5.98203 14.5018C5.70488 14.0241 5.86746 13.4122 6.34517 13.135C6.4975 13.0467 6.66348 13.003 6.8279 13H2C1.56761 13 1.1842 12.7221 1.04965 12.3112C0.917387 11.9072 1.05505 11.4647 1.39094 11.2069C1.39408 11.2042 1.40059 11.1986 1.41015 11.1898C1.43682 11.1654 1.48745 11.1162 1.55474 11.038C1.68882 10.8823 1.89203 10.6083 2.10409 10.1806C2.5266 9.32855 3 7.83407 3 5.4ZM3.92975 11H12.0702C11.5062 9.83345 11 8.04611 11 5.4C11 3.5852 9.65182 2 8 2C6.34851 2 5 3.58548 5 5.4C5 8.04611 4.49381 9.83345 3.92975 11ZM6.86423 13C7.20267 13.0062 7.52971 13.184 7.71197 13.4982C7.74124 13.5486 7.78326 13.5905 7.83381 13.6196C7.88435 13.6487 7.94167 13.6641 8 13.6641C8.05834 13.6641 8.11565 13.6487 8.1662 13.6196C8.21674 13.5905 8.25876 13.5486 8.28803 13.4982C8.47029 13.184 8.79733 13.0062 9.13577 13H6.86423Z" fill="#526ED3"/>
</svg>
