<svg width="24" height="24" viewBox="0 0 24 24" fill="none" xmlns="http://www.w3.org/2000/svg">
<path fill-rule="evenodd" clip-rule="evenodd" d="M11.999 1C5.92374 1 0.999023 5.92472 0.999023 12C0.999023 18.0753 5.92374 23 11.999 23C18.0743 23 22.999 18.0753 22.999 12C22.999 5.92472 18.0743 1 11.999 1ZM2.99902 12C2.99902 7.02928 7.02831 3 11.999 3C16.9697 3 20.999 7.02928 20.999 12C20.999 16.9707 16.9697 21 11.999 21C7.02831 21 2.99902 16.9707 2.99902 12ZM10.9058 8.27123C11.313 8.03191 11.7917 7.94443 12.2573 8.02428C12.7228 8.10413 13.145 8.34615 13.4492 8.70749C13.7534 9.06883 13.9198 9.52615 13.9191 9.99847L13.9191 9.99996C13.9191 10.4691 13.554 10.9582 12.8644 11.4179C12.5501 11.6275 12.2286 11.7889 11.9818 11.8986C11.8598 11.9529 11.7595 11.9929 11.6921 12.0186C11.6584 12.0314 11.6332 12.0406 11.6178 12.046L11.6019 12.0516C11.0786 12.2267 10.7959 12.7926 10.9705 13.3162C11.1451 13.8401 11.7114 14.1233 12.2354 13.9486L12.2366 13.9482L12.2382 13.9477L12.242 13.9464L12.2531 13.9426L12.2878 13.9305C12.3164 13.9203 12.3556 13.906 12.404 13.8876C12.5007 13.8508 12.6348 13.7971 12.794 13.7263C13.1097 13.586 13.5382 13.3724 13.9738 13.082C14.7841 12.5419 15.9187 11.5312 15.9191 10.0009C15.9204 9.05644 15.5875 8.14201 14.9792 7.41949C14.3709 6.69682 13.5264 6.21277 12.5954 6.05307C11.6643 5.89337 10.7068 6.06833 9.89241 6.54696C9.07801 7.02559 8.45928 7.77701 8.14581 8.66812C7.96253 9.18911 8.23631 9.76002 8.7573 9.9433C9.27829 10.1266 9.8492 9.85279 10.0325 9.33181C10.1892 8.88625 10.4986 8.51054 10.9058 8.27123ZM11.9991 16C11.4469 16 10.9991 16.4477 10.9991 17C10.9991 17.5522 11.4469 18 11.9991 18H12.0091C12.5614 18 13.0091 17.5522 13.0091 17C13.0091 16.4477 12.5614 16 12.0091 16H11.9991Z" fill="black"/>
</svg>
